<svg width="28" height="28" viewBox="0 0 28 28" fill="none" xmlns="http://www.w3.org/2000/svg">
<rect width="28" height="28" rx="14" fill="#E9F9EB"/>
<path d="M7.24668 20.289L7.24662 20.2892L7.5937 20.6718V20.7718H7.59396H7.64683H7.65661L7.66621 20.7699L11.3579 20.0405C12.8912 20.7631 14.6295 20.9261 16.271 20.5007C17.9232 20.0726 19.3716 19.0757 20.3616 17.6853C21.3515 16.2949 21.8197 14.6001 21.6837 12.8987C21.5477 11.1973 20.8163 9.59833 19.618 8.38285L19.6174 8.38219C18.2581 7.0289 16.4181 6.26914 14.5 6.26914C12.5819 6.26914 10.7418 7.0289 9.38252 8.38219L9.38213 8.38258C8.2373 9.53511 7.5097 11.0366 7.31458 12.6494C7.12131 14.2467 7.46134 15.8627 8.28103 17.2462L7.24668 20.289ZM11.406 19.2835L11.3921 19.2834L11.3787 19.2872L11.3344 19.2995L8.14516 19.9343L9.03496 17.3124C9.03499 17.3123 9.03502 17.3122 9.03505 17.3121C9.05284 17.2604 9.05879 17.2053 9.05248 17.151C9.04615 17.0966 9.02771 17.0444 8.9985 16.9981C8.20941 15.7442 7.86784 14.2603 8.02936 12.7876C8.19087 11.3151 8.84589 9.94049 9.88786 8.88751C10.4935 8.28181 11.2125 7.80134 12.0038 7.47352C12.7951 7.14567 13.6434 6.97693 14.5 6.97693C15.3566 6.97693 16.2048 7.14567 16.9961 7.47352C17.7875 7.80135 18.5065 8.28185 19.1121 8.88758C20.2018 9.98517 20.8662 11.4342 20.9867 12.9761C21.1073 14.5182 20.676 16.0529 19.77 17.3065C18.864 18.5601 17.5421 19.4511 16.0401 19.8205C14.5383 20.1898 12.9541 20.0137 11.5701 19.3235C11.5193 19.2976 11.4631 19.2839 11.406 19.2835Z" fill="#3CC952" stroke="#3CC952" stroke-width="0.2"/>
<path d="M12.638 9.15945C12.6904 9.1614 12.7411 9.17883 12.7837 9.20956C12.8262 9.24029 12.8587 9.28293 12.8771 9.33211M12.638 9.15945L18.4977 15.0059C18.4957 14.9534 18.4783 14.9027 18.4476 14.8602C18.4168 14.8176 18.3742 14.7851 18.325 14.7668C17.9027 14.6074 16.4975 14.0921 16.1336 14.0921C15.8016 14.0921 15.5546 14.3737 15.3367 14.6234C15.3334 14.6271 15.33 14.6309 15.3266 14.6348C15.2824 14.6842 15.2245 14.7489 15.1827 14.7907C14.6921 14.5222 14.2325 14.2006 13.8121 13.8318C13.4432 13.4114 13.1216 12.9518 12.8532 12.4612C12.8957 12.416 12.9674 12.3523 13.0205 12.3071C13.2702 12.0893 13.5517 11.8423 13.5517 11.5235C13.5517 11.1596 13.0364 9.75445 12.8771 9.33211M12.638 9.15945L11.9208 9.13555C11.7268 9.12676 11.5368 9.19231 11.3896 9.31883L12.638 9.15945ZM12.8771 9.33211L12.9708 9.29718C12.9707 9.29712 12.9707 9.29705 12.9707 9.29699M12.8771 9.33211L12.9706 9.2968C12.9706 9.29687 12.9707 9.29693 12.9707 9.29699M18.3603 14.6732C18.1485 14.5933 17.6902 14.4241 17.2388 14.2747C17.0132 14.2001 16.7882 14.13 16.5961 14.0785C16.4079 14.0281 16.2396 13.9921 16.1336 13.9921C15.9375 13.9921 15.7715 14.0757 15.6309 14.1852C15.4917 14.2936 15.3695 14.4337 15.2619 14.5571L15.2618 14.5572C15.2588 14.5605 15.2557 14.564 15.2525 14.5675C15.225 14.5983 15.1932 14.6338 15.1636 14.6658C14.7065 14.4096 14.2773 14.1063 13.8829 13.7609C13.5372 13.3663 13.2338 12.9367 12.9774 12.4791C13.0118 12.4469 13.0516 12.4119 13.0853 12.3833L13.0853 12.3833L13.0862 12.3825L13.0866 12.3821C13.21 12.2745 13.35 12.1524 13.4583 12.0151C13.5673 11.8768 13.6517 11.714 13.6517 11.5235C13.6517 11.4175 13.6158 11.2493 13.5653 11.0611C13.5138 10.8689 13.4438 10.6439 13.3691 10.4183C13.2198 9.96703 13.0506 9.50887 12.9707 9.29699M18.3603 14.6732L16.1602 17.2185C14.7497 17.0645 12.9727 15.6699 12.4707 15.1785C11.9792 14.6871 10.5821 12.8995 10.4307 11.489M18.3603 14.6732C18.4279 14.6985 18.4864 14.7432 18.5286 14.8016C18.5709 14.8602 18.5949 14.93 18.5976 15.0022L18.5976 15.0025L18.6215 15.7197L18.6216 15.7202C18.6277 15.9378 18.5545 16.1501 18.4156 16.3177C18.172 16.6182 17.8668 16.8629 17.5206 17.0356C17.1745 17.2081 16.7955 17.3046 16.4091 17.3184M18.3603 14.6732L10.4307 11.489M12.9707 9.29699C12.9454 9.22938 12.9007 9.17075 12.8422 9.12849C12.7837 9.0862 12.7139 9.0622 12.6417 9.05952L12.6413 9.05951L11.9247 9.03562C11.7056 9.02585 11.4911 9.09991 11.3247 9.24274C10.9891 9.52694 10.2034 10.3218 10.3312 11.4998L10.4307 11.489M10.4307 11.489L10.3312 11.4997C10.4094 12.2281 10.8067 13.0435 11.2385 13.7316C11.6714 14.4215 12.1481 14.9974 12.3999 15.2492L12.4007 15.25C12.6573 15.5012 13.2328 15.977 13.9216 16.4097C14.6082 16.8411 15.4209 17.2384 16.1493 17.3179L16.1493 17.3181L16.1547 17.3184C16.2395 17.323 16.3243 17.323 16.4091 17.3184M16.4091 17.3184C16.4087 17.3184 16.4084 17.3184 16.4081 17.3185L16.4046 17.2185L16.41 17.3184C16.4097 17.3184 16.4094 17.3184 16.4091 17.3184ZM13.027 14.8281L12.93 14.7288C12.7163 14.5099 12.2822 13.9862 11.885 13.3614C11.4862 12.7342 11.1344 12.02 11.0693 11.4171L11.0693 11.417C10.9796 10.5997 11.5454 10.0193 11.8062 9.79992C11.837 9.77548 11.8755 9.76277 11.9148 9.76408L12.3806 9.78039C12.6036 10.345 12.7855 10.9251 12.9246 11.5161C12.9204 11.5234 12.914 11.5329 12.9051 11.5446C12.8836 11.5726 12.8531 11.606 12.8173 11.6417C12.7581 11.7009 12.6913 11.7602 12.6405 11.8053C12.63 11.8147 12.6201 11.8235 12.6112 11.8315L12.6112 11.8315L12.6105 11.8321C12.6055 11.8366 12.6005 11.8412 12.5955 11.8457C12.4995 11.9331 12.4061 12.018 12.337 12.1058C12.2623 12.2006 12.2086 12.3075 12.2086 12.4373C12.2086 12.4965 12.2273 12.5643 12.2526 12.6317C12.2787 12.7012 12.3155 12.7794 12.3592 12.862C12.4465 13.0275 12.5648 13.2177 12.6901 13.4042C12.9396 13.7752 13.2255 14.1437 13.3642 14.2824C13.5025 14.4207 13.8687 14.7085 14.2393 14.9601C14.4255 15.0865 14.6157 15.2058 14.7821 15.294C14.8652 15.338 14.944 15.3752 15.0144 15.4016C15.0828 15.4272 15.1516 15.4459 15.2119 15.4459C15.3447 15.4459 15.4536 15.3929 15.5494 15.3175C15.6425 15.2442 15.7298 15.1441 15.8185 15.0424C15.8235 15.0366 15.8288 15.0306 15.8344 15.0242C15.8803 14.9713 15.9448 14.8971 16.0086 14.833C16.0444 14.797 16.0776 14.7668 16.105 14.7462C16.1155 14.7383 16.124 14.7328 16.1303 14.7292C16.7222 14.8684 17.3033 15.0504 17.8688 15.2738L17.8851 15.7397C17.8851 15.7397 17.8851 15.7398 17.8851 15.7398M13.027 14.8281L17.8851 15.7398M13.027 14.8281C13.282 15.0601 13.7453 15.4282 14.2839 15.7694C14.9135 16.1682 15.6304 16.52 16.2294 16.5852C17.0493 16.6723 17.6297 16.1066 17.8494 15.8481M13.027 14.8281L17.8494 15.8481M17.8851 15.7398C17.8864 15.779 17.8737 15.8174 17.8494 15.8481M17.8851 15.7398L17.8494 15.8481" fill="#3CC952" stroke="#3CC952" stroke-width="0.2"/>
</svg>
