<svg width="28" height="28" viewBox="0 0 28 28" fill="none" xmlns="http://www.w3.org/2000/svg">
<rect width="28" height="28" rx="14" fill="#FFE9EC"/>
<path d="M16.9999 7.99872C17.7949 8.0011 18.5567 8.31795 19.1188 8.88009C19.6809 9.44222 19.9978 10.204 20.0002 10.9989V16.9987C19.9978 17.7937 19.6809 18.5554 19.1188 19.1176C18.5567 19.6797 17.7949 19.9966 16.9999 19.9989H11.0002C10.2052 19.9966 9.44344 19.6797 8.88131 19.1176C8.31917 18.5554 8.00232 17.7937 7.99994 16.9987V10.9989C8.00232 10.204 8.31917 9.44222 8.88131 8.88009C9.44344 8.31795 10.2052 8.0011 11.0002 7.99872H16.9999M16.9999 6.79883H11.0002C8.69005 6.79883 6.80005 8.68883 6.80005 10.9989V16.9987C6.80005 19.3088 8.69005 21.1988 11.0002 21.1988H16.9999C19.31 21.1988 21.2 19.3088 21.2 16.9987V10.9989C21.2 8.68883 19.31 6.79883 16.9999 6.79883V6.79883Z" fill="#FF4E64"/>
<path d="M17.6322 11.2357C17.4605 11.2357 17.2927 11.1848 17.15 11.0895C17.0073 10.9941 16.896 10.8586 16.8303 10.7C16.7647 10.5414 16.7475 10.3669 16.781 10.1986C16.8144 10.0302 16.8971 9.87557 17.0185 9.75419C17.1399 9.63282 17.2945 9.55016 17.4628 9.51668C17.6312 9.48319 17.8057 9.50038 17.9643 9.56606C18.1229 9.63175 18.2584 9.74299 18.3538 9.88571C18.4491 10.0284 18.5 10.1962 18.5 10.3679C18.5003 10.4819 18.478 10.5949 18.4345 10.7003C18.3909 10.8057 18.327 10.9015 18.2464 10.9821C18.1657 11.0627 18.07 11.1266 17.9646 11.1702C17.8592 11.2137 17.7462 11.236 17.6322 11.2357V11.2357ZM13.8715 11.8141C14.3292 11.8141 14.7767 11.9498 15.1573 12.2042C15.5379 12.4585 15.8346 12.8199 16.0097 13.2428C16.1849 13.6657 16.2307 14.1311 16.1414 14.58C16.0521 15.029 15.8317 15.4414 15.508 15.7651C15.1844 16.0887 14.772 16.3092 14.323 16.3985C13.8741 16.4878 13.4087 16.4419 12.9858 16.2668C12.5629 16.0916 12.2014 15.795 11.9471 15.4143C11.6928 15.0337 11.5571 14.5863 11.5571 14.1285C11.5577 13.5149 11.8018 12.9266 12.2357 12.4927C12.6696 12.0588 13.2579 11.8148 13.8715 11.8141M13.8715 10.6571C13.1849 10.6571 12.5137 10.8607 11.9429 11.2421C11.372 11.6236 10.927 12.1657 10.6643 12.8001C10.4015 13.4344 10.3328 14.1324 10.4667 14.8058C10.6007 15.4792 10.9313 16.0977 11.4168 16.5832C11.9023 17.0687 12.5208 17.3993 13.1942 17.5333C13.8676 17.6672 14.5656 17.5985 15.2 17.3357C15.8343 17.073 16.3765 16.6281 16.7579 16.0572C17.1394 15.4863 17.343 14.8151 17.343 14.1285C17.343 13.2078 16.9772 12.3249 16.3262 11.6738C15.6752 11.0228 14.7922 10.6571 13.8715 10.6571V10.6571Z" fill="#FF4E64"/>
</svg>
