<svg width="18" height="18" viewBox="0 0 18 18" fill="none" xmlns="http://www.w3.org/2000/svg">
<path d="M9.8995 0C9.66079 0 9.43186 0.0948265 9.26307 0.263619C9.09428 0.432411 8.99945 0.661343 8.99945 0.900051V8.10046C8.99945 8.33917 9.09428 8.5681 9.26307 8.73689C9.43186 8.90568 9.66079 9.00051 9.8995 9.00051H17.0999C17.3386 9.00051 17.5675 8.90568 17.7363 8.73689C17.9051 8.5681 18 8.33917 18 8.10046C18 5.95208 17.1465 3.8917 15.6274 2.37257C14.1083 0.853439 12.0479 0 9.8995 0V0ZM10.7996 7.20041V1.86311C12.1462 2.05717 13.3939 2.68195 14.3559 3.64402C15.318 4.60609 15.9428 5.85375 16.1369 7.20041H10.7996Z" fill="white"/>
<path d="M16.9379 10.8548C16.8263 10.8149 16.7078 10.7975 16.5894 10.8035C16.4709 10.8095 16.3548 10.8389 16.2478 10.8899C16.1407 10.9409 16.0448 11.0126 15.9655 11.1008C15.8863 11.189 15.8252 11.292 15.7859 11.4039C15.3803 12.5505 14.6908 13.5756 13.7819 14.3837C12.873 15.1918 11.7741 15.7565 10.5879 16.0251C9.40176 16.2938 8.16686 16.2575 6.99846 15.9198C5.83006 15.5821 4.76623 14.954 3.90623 14.094C3.04623 13.234 2.41809 12.1702 2.0804 11.0018C1.74271 9.83338 1.70648 8.59848 1.97509 7.41229C2.2437 6.2261 2.80839 5.12728 3.61649 4.21834C4.42459 3.3094 5.44976 2.61997 6.59636 2.21436C6.82193 2.13558 7.00698 1.97042 7.11079 1.75521C7.2146 1.54 7.22866 1.29237 7.14989 1.06679C7.07111 0.841212 6.90595 0.656164 6.69074 0.552357C6.47553 0.44855 6.2279 0.434486 6.00232 0.51326C4.56858 1.01979 3.28654 1.8813 2.27585 3.0174C1.26517 4.1535 0.558799 5.52713 0.222663 7.0101C-0.113472 8.49307 -0.0684124 10.037 0.353638 11.4979C0.775688 12.9587 1.56097 14.2888 2.63619 15.364C3.71141 16.4393 5.04151 17.2245 6.50235 17.6466C7.9632 18.0686 9.50716 18.1137 10.9901 17.7776C12.4731 17.4414 13.8467 16.7351 14.9828 15.7244C16.1189 14.7137 16.9804 13.4317 17.487 11.9979C17.5648 11.7735 17.5508 11.5274 17.4479 11.3133C17.3451 11.0992 17.1618 10.9344 16.9379 10.8548Z" fill="white"/>
</svg>
