<svg width="77" height="80" viewBox="0 0 77 80" fill="none" xmlns="http://www.w3.org/2000/svg">
<path fill-rule="evenodd" clip-rule="evenodd" d="M61.024 8.75877C61.0213 8.6733 61.02 8.5875 61.02 8.50137C61.02 4.09771 64.5898 0.527831 68.9935 0.527832C73.3972 0.527832 76.967 4.09771 76.967 8.50138C76.967 8.5875 76.9657 8.6733 76.963 8.75877L76.9668 8.75877C76.9668 18.3283 75.032 27.7991 71.2788 36.6019C67.5255 45.4047 62.1986 53.4589 55.2935 60.0843C48.3884 66.7097 40.3618 71.8239 31.4114 75.2102C22.4611 78.5965 13.9038 80.5922 0.126606 79.8079L1.93393 63.8852C10.9705 64.3656 18.4718 62.6822 25.388 60.0655C32.3043 57.4489 38.62 53.4609 43.9558 48.3412C49.2915 43.2216 53.5371 37.076 56.4374 30.2739C59.3376 23.4717 61.0197 16.1534 61.0197 8.75877L61.024 8.75877Z" fill="#EE8484"/>
</svg>
