<svg width="103" height="143" viewBox="0 0 103 143" fill="none" xmlns="http://www.w3.org/2000/svg">
<path d="M88.3317 142.724C78.0556 141.873 67.8848 138.793 58.9196 133.699C49.9545 128.605 42.2067 121.619 36.215 113.227C30.2234 104.836 26.1318 95.2392 24.2248 85.1058C22.3177 74.9724 22.7837 64.2248 25.315 54.229L40.7477 58.3444C38.7917 66.0684 38.607 74.2915 40.0806 82.1219C41.5542 89.9522 44.7159 97.3676 49.3458 103.852C53.9757 110.337 59.9626 115.735 66.8902 119.671C73.8178 123.607 81.6772 126.105 89.6177 126.763L88.3317 142.724Z" fill="#F6DC7D"/>
<path fill-rule="evenodd" clip-rule="evenodd" d="M29.6121 101.309C25.6633 92.5924 23.5177 83.1672 23.3042 73.6C23.0906 64.0329 24.6194 54.4982 28.1753 45.6139C31.7313 36.7295 36.9323 28.7589 43.6878 21.9811C50.4434 15.2032 57.4146 9.85435 70.2878 4.88376L75.2119 20.1335C66.7822 23.4247 60.644 28.0534 55.4238 33.2908C50.2036 38.5282 46.0962 44.767 43.3484 51.6322C40.6007 58.4974 39.2693 65.8472 39.4343 73.24C39.5993 80.6328 41.0869 87.9932 44.1382 94.7289L44.135 94.7304C44.1726 94.8069 44.2092 94.8843 44.2446 94.9625C46.0617 98.9738 44.283 103.699 40.2717 105.516C36.2605 107.333 31.5356 105.554 29.7185 101.543C29.683 101.465 29.649 101.386 29.6163 101.307L29.6121 101.309Z" fill="#F6DC7D"/>
<path fill-rule="evenodd" clip-rule="evenodd" d="M40.8138 58.4336C39.869 61.7632 36.8139 64.2093 33.1795 64.2263C28.7759 64.2469 25.1893 60.6938 25.1686 56.2902C25.1642 55.3422 25.3254 54.432 25.6251 53.5871C29.5327 38.5958 38.1112 25.4129 50.3086 15.8271C62.7274 6.06735 78.0473 0.91502 93.842 0.840993L93.9167 16.7879C81.7117 16.8451 69.8743 20.971 60.278 28.5126C50.6817 36.0542 43.8094 46.6024 40.8687 58.448L40.8138 58.4336Z" fill="#98D89E"/>
</svg>
