<svg width="103" height="143" viewBox="0 0 103 143" fill="none" xmlns="http://www.w3.org/2000/svg">
<path d="M88.3318 142.724C78.0558 141.873 67.8849 138.793 58.9197 133.699C49.9546 128.605 42.2068 121.619 36.2151 113.227C30.2235 104.836 26.1319 95.2392 24.2249 85.1058C22.3179 74.9724 22.7838 64.2248 25.3151 54.229L40.7478 58.3444C38.7918 66.0684 38.6071 74.2915 40.0807 82.1219C41.5543 89.9522 44.716 97.3676 49.3459 103.852C53.9758 110.337 59.9628 115.735 66.8904 119.671C73.818 123.607 81.6773 126.105 89.6179 126.763L88.3318 142.724Z" fill="#F6DC7D"/>
<path fill-rule="evenodd" clip-rule="evenodd" d="M29.6122 101.309C25.6634 92.5924 23.5178 83.1672 23.3043 73.6C23.0908 64.0329 24.6195 54.4982 28.1755 45.6139C31.7314 36.7295 36.9324 28.7589 43.6879 21.9811C50.4435 15.2032 57.4147 9.85435 70.288 4.88376L75.212 20.1335C66.7824 23.4247 60.6441 28.0534 55.4239 33.2908C50.2037 38.5282 46.0963 44.767 43.3486 51.6322C40.6008 58.4974 39.2694 65.8472 39.4344 73.24C39.5994 80.6328 41.087 87.9932 44.1383 94.7289L44.1351 94.7304C44.1727 94.8069 44.2093 94.8843 44.2447 94.9625C46.0618 98.9738 44.2831 103.699 40.2719 105.516C36.2606 107.333 31.5357 105.554 29.7186 101.543C29.6832 101.465 29.6491 101.386 29.6164 101.307L29.6122 101.309Z" fill="#F6DC7D"/>
<path fill-rule="evenodd" clip-rule="evenodd" d="M40.8139 58.4336C39.8691 61.7632 36.814 64.2093 33.1796 64.2263C28.776 64.2469 25.1894 60.6938 25.1688 56.2902C25.1643 55.3422 25.3255 54.432 25.6252 53.5871C29.5328 38.5958 38.1113 25.4129 50.3088 15.8271C62.7275 6.06735 78.0474 0.91502 93.8421 0.840993L93.9168 16.7879C81.7118 16.8451 69.8745 20.971 60.2781 28.5126C50.6818 36.0542 43.8096 46.6024 40.8689 58.448L40.8139 58.4336Z" fill="#98D89E"/>
</svg>
