<svg width="78" height="78" viewBox="0 0 78 78" fill="none" xmlns="http://www.w3.org/2000/svg">
<circle cx="39" cy="39.0002" r="37.8918" fill="#F5F5F5" stroke="#F2F2F2"/>
<path fill-rule="evenodd" clip-rule="evenodd" d="M39 23.0049C39.8834 23.0049 40.5996 23.7211 40.5996 24.6045L40.5997 37.7096L53.7048 37.7096C54.5882 37.7096 55.3044 38.4258 55.3044 39.3092C55.3044 40.1927 54.5883 40.9089 53.7048 40.9089L40.5997 40.9089L40.5998 54.0139C40.5998 54.8973 39.8836 55.6135 39.0001 55.6135C38.1167 55.6136 37.4005 54.8974 37.4005 54.0139L37.4004 40.9089L24.2953 40.9089C23.4118 40.9089 22.6956 40.1927 22.6956 39.3092C22.6957 38.4257 23.4119 37.7095 24.2953 37.7095L37.4004 37.7096L37.4003 24.6046C37.4003 23.7211 38.1165 23.0049 39 23.0049Z" fill="#999CA0"/>
</svg>
