<svg width="20" height="20" viewBox="0 0 20 20" fill="none" xmlns="http://www.w3.org/2000/svg">
<path d="M7.3 17.1999H4.6C3.64522 17.1999 2.72955 16.8206 2.05442 16.1455C1.37928 15.4704 1 14.5547 1 13.5999V5.4999C1 4.54512 1.37928 3.62945 2.05442 2.95432C2.72955 2.27919 3.64522 1.8999 4.6 1.8999H14.5C15.4548 1.8999 16.3705 2.27919 17.0456 2.95432C17.7207 3.62945 18.1 4.54512 18.1 5.4999V8.1999" stroke="white" stroke-width="1.5" stroke-linecap="round" stroke-linejoin="round"/>
<path d="M6.3999 1V2.8" stroke="white" stroke-width="1.5" stroke-linecap="round" stroke-linejoin="round"/>
<path d="M12.7 1V2.8" stroke="white" stroke-width="1.5" stroke-linecap="round" stroke-linejoin="round"/>
<path d="M1 6.3999H18.1" stroke="white" stroke-width="1.5" stroke-linecap="round" stroke-linejoin="round"/>
<path d="M15.85 13.2788L14.5 14.6288" stroke="white" stroke-width="1.5" stroke-linecap="round" stroke-linejoin="round"/>
<path d="M14.5 19C16.9853 19 19 16.9853 19 14.5C19 12.0147 16.9853 10 14.5 10C12.0147 10 10 12.0147 10 14.5C10 16.9853 12.0147 19 14.5 19Z" stroke="white" stroke-width="1.5" stroke-linecap="round" stroke-linejoin="round"/>
</svg>
