<svg width="19" height="22" viewBox="0 0 19 22" fill="none" xmlns="http://www.w3.org/2000/svg">
<path d="M16.3862 12.6566V8.91134C16.3862 5.55151 14.2012 2.72119 11.2412 1.87001C10.9482 1.09924 10.2322 0.556152 9.38623 0.556152C8.54023 0.556152 7.82423 1.09924 7.53123 1.87001C4.57123 2.72223 2.38623 5.55151 2.38623 8.91134V12.6566L0.679231 14.4393C0.586189 14.5362 0.512401 14.6512 0.462116 14.778C0.411831 14.9047 0.386041 15.0406 0.386232 15.1777V17.2665C0.386232 17.5435 0.491588 17.8092 0.679125 18.005C0.866661 18.2009 1.12102 18.3109 1.38623 18.3109H17.3862C17.6514 18.3109 17.9058 18.2009 18.0933 18.005C18.2809 17.8092 18.3862 17.5435 18.3862 17.2665V15.1777C18.3864 15.0406 18.3606 14.9047 18.3103 14.778C18.2601 14.6512 18.1863 14.5362 18.0932 14.4393L16.3862 12.6566ZM16.3862 16.2221H2.38623V15.6101L4.09323 13.8273C4.18627 13.7305 4.26006 13.6154 4.31035 13.4887C4.36063 13.362 4.38642 13.2261 4.38623 13.0889V8.91134C4.38623 6.03193 6.62923 3.68935 9.38623 3.68935C12.1432 3.68935 14.3862 6.03193 14.3862 8.91134V13.0889C14.3862 13.3667 14.4912 13.632 14.6792 13.8273L16.3862 15.6101V16.2221ZM9.38623 21.4441C10.0055 21.4449 10.6097 21.2442 11.1147 20.8699C11.6198 20.4955 12.0006 19.9661 12.2042 19.3553H6.56823C6.77189 19.9661 7.15271 20.4955 7.65774 20.8699C8.16277 21.2442 8.76693 21.4449 9.38623 21.4441V21.4441Z" fill="black"/>
</svg>
