<svg width="5" height="7" viewBox="0 0 5 7" fill="none" xmlns="http://www.w3.org/2000/svg">
<path d="M0.255719 6.08584C-0.0722496 5.88757 -0.097987 5.61153 0.255719 5.36915L3.0111 3.59197L0.255719 1.81478C-0.0979873 1.5724 -0.0722499 1.29591 0.255719 1.099C0.582952 0.900725 1.13594 0.913458 1.44332 1.099C1.7507 1.28363 4.75389 3.23407 4.75389 3.23407C4.83173 3.28052 4.89364 3.33619 4.93592 3.39776C4.97821 3.45932 5 3.52553 5 3.59242C5 3.65931 4.97821 3.72552 4.93592 3.78709C4.89364 3.84865 4.83173 3.90432 4.75389 3.95077C4.75389 3.95077 1.7507 5.9003 1.44332 6.08584C1.13594 6.27184 0.582952 6.28412 0.255719 6.08584Z" fill="#858585"/>
</svg>
