<svg width="21" height="14" viewBox="0 0 21 14" fill="none" xmlns="http://www.w3.org/2000/svg">
<path d="M10.2074 9.3344C11.1047 8.73836 11.7863 7.86928 12.1512 6.85577C12.5162 5.84226 12.5452 4.73817 12.2339 3.70691C11.9226 2.67565 11.2875 1.77201 10.4227 1.12972C9.55794 0.487432 8.50934 0.140625 7.43212 0.140625C6.3549 0.140625 5.30629 0.487432 4.4415 1.12972C3.5767 1.77201 2.94166 2.67565 2.63036 3.70691C2.31906 4.73817 2.34804 5.84226 2.71301 6.85577C3.07798 7.86928 3.75955 8.73836 4.65686 9.3344C3.12725 9.89864 1.80523 10.9144 0.866027 12.2471C0.814788 12.3188 0.778252 12.4 0.758524 12.486C0.738796 12.572 0.736264 12.661 0.751075 12.7479C0.765886 12.8348 0.797746 12.918 0.844823 12.9926C0.891899 13.0672 0.953262 13.1317 1.02538 13.1825C1.09749 13.2332 1.17894 13.2692 1.26502 13.2884C1.35111 13.3076 1.44014 13.3095 1.52698 13.2941C1.61382 13.2787 1.69676 13.2463 1.77103 13.1988C1.84529 13.1512 1.90942 13.0894 1.95971 13.017C2.57691 12.139 3.39631 11.4223 4.34873 10.9276C5.30115 10.4329 6.35862 10.1746 7.43186 10.1746C8.5051 10.1746 9.56259 10.4328 10.515 10.9274C11.4675 11.4221 12.2869 12.1387 12.9042 13.0166C12.9547 13.0886 13.0189 13.1498 13.0931 13.1969C13.1673 13.244 13.2501 13.276 13.3367 13.2911C13.4233 13.3061 13.512 13.304 13.5977 13.2848C13.6835 13.2656 13.7646 13.2296 13.8365 13.179C13.9083 13.1284 13.9695 13.0641 14.0165 12.9899C14.0635 12.9156 14.0954 12.8328 14.1104 12.7462C14.1254 12.6596 14.1232 12.5709 14.1038 12.4852C14.0845 12.3994 14.0485 12.3184 13.9978 12.2465C13.0586 10.9141 11.7368 9.89852 10.2074 9.33432V9.3344ZM3.75385 5.15894C3.75385 4.43146 3.96958 3.72031 4.37374 3.11543C4.77791 2.51055 5.35237 2.0391 6.02448 1.76071C6.69659 1.48231 7.43616 1.40947 8.14966 1.5514C8.86317 1.69332 9.51856 2.04364 10.033 2.55805C10.5474 3.07245 10.8977 3.72785 11.0396 4.44136C11.1816 5.15486 11.1087 5.89443 10.8303 6.56654C10.5519 7.23865 10.0805 7.81311 9.47559 8.21728C8.87071 8.62144 8.15956 8.83717 7.43208 8.83717C6.45689 8.83606 5.52196 8.44818 4.8324 7.75862C4.14284 7.06906 3.75496 6.13413 3.75385 5.15894V5.15894ZM20.6509 13.1785C20.5791 13.2291 20.4981 13.265 20.4124 13.2842C20.3267 13.3035 20.2381 13.3056 20.1515 13.2906C20.065 13.2756 19.9823 13.2437 19.9081 13.1967C19.8339 13.1497 19.7697 13.0885 19.7191 13.0167C19.1011 12.1395 18.2816 11.4236 17.3293 10.929C16.3771 10.4344 15.32 10.1758 14.247 10.1747C14.0696 10.1747 13.8995 10.1042 13.7741 9.97883C13.6487 9.85341 13.5782 9.68331 13.5782 9.50594C13.5782 9.32857 13.6487 9.15847 13.7741 9.03305C13.8995 8.90763 14.0696 8.83717 14.247 8.83717C14.7722 8.83658 15.2913 8.7235 15.7692 8.50555C16.2471 8.28759 16.6727 7.96981 17.0175 7.57359C17.3624 7.17736 17.6183 6.71188 17.7682 6.20847C17.9181 5.70505 17.9584 5.17538 17.8864 4.65508C17.8145 4.13478 17.6319 3.63593 17.351 3.19208C17.0702 2.74823 16.6975 2.36968 16.2581 2.08191C15.8187 1.79413 15.3228 1.6038 14.8037 1.52372C14.2845 1.44364 13.7543 1.47567 13.2486 1.61765C13.0781 1.66494 12.8958 1.64273 12.7416 1.55588C12.5875 1.46904 12.474 1.32465 12.4261 1.15432C12.3782 0.98399 12.3997 0.801615 12.486 0.647132C12.5723 0.492649 12.7162 0.378651 12.8864 0.330103C14.0368 0.00551543 15.2654 0.10254 16.3506 0.60369C17.4359 1.10484 18.3064 1.97715 18.8053 3.06341C19.3043 4.14966 19.3988 5.37841 19.0718 6.52819C18.7449 7.67798 18.018 8.67317 17.0222 9.3344C18.5516 9.89858 19.8735 10.9142 20.8127 12.2466C20.9148 12.3917 20.9552 12.5713 20.9248 12.7461C20.8945 12.9208 20.796 13.0764 20.6509 13.1785Z" fill="white"/>
</svg>
