<svg width="21" height="14" viewBox="0 0 21 14" fill="none" xmlns="http://www.w3.org/2000/svg">
<path d="M10.2075 9.3344C11.1048 8.73836 11.7864 7.86928 12.1513 6.85577C12.5163 5.84226 12.5453 4.73817 12.234 3.70691C11.9227 2.67565 11.2877 1.77201 10.4229 1.12972C9.55806 0.487432 8.50946 0.140625 7.43224 0.140625C6.35502 0.140625 5.30641 0.487432 4.44162 1.12972C3.57682 1.77201 2.94178 2.67565 2.63048 3.70691C2.31918 4.73817 2.34816 5.84226 2.71313 6.85577C3.07811 7.86928 3.75968 8.73836 4.65698 9.3344C3.12737 9.89864 1.80535 10.9144 0.866149 12.2471C0.81491 12.3188 0.778374 12.4 0.758646 12.486C0.738918 12.572 0.736386 12.661 0.751197 12.7479C0.766008 12.8348 0.797869 12.918 0.844945 12.9926C0.892021 13.0672 0.953384 13.1317 1.0255 13.1825C1.09762 13.2332 1.17906 13.2692 1.26515 13.2884C1.35123 13.3076 1.44026 13.3095 1.5271 13.2941C1.61394 13.2787 1.69688 13.2463 1.77115 13.1988C1.84542 13.1512 1.90954 13.0894 1.95984 13.017C2.57703 12.139 3.39643 11.4223 4.34885 10.9276C5.30127 10.4329 6.35875 10.1746 7.43199 10.1746C8.50522 10.1746 9.56272 10.4328 10.5152 10.9274C11.4676 11.4221 12.2871 12.1387 12.9043 13.0166C12.9548 13.0886 13.019 13.1498 13.0932 13.1969C13.1674 13.244 13.2502 13.276 13.3368 13.2911C13.4234 13.3061 13.5121 13.304 13.5978 13.2848C13.6836 13.2656 13.7647 13.2296 13.8366 13.179C13.9085 13.1284 13.9696 13.0641 14.0166 12.9899C14.0636 12.9156 14.0955 12.8328 14.1105 12.7462C14.1255 12.6596 14.1233 12.5709 14.104 12.4852C14.0846 12.3994 14.0486 12.3184 13.9979 12.2465C13.0588 10.9141 11.7369 9.89852 10.2075 9.33432V9.3344ZM3.75397 5.15894C3.75397 4.43146 3.9697 3.72031 4.37387 3.11543C4.77803 2.51055 5.35249 2.0391 6.0246 1.76071C6.69671 1.48231 7.43628 1.40947 8.14978 1.5514C8.86329 1.69332 9.51869 2.04364 10.0331 2.55805C10.5475 3.07245 10.8978 3.72785 11.0397 4.44136C11.1817 5.15486 11.1088 5.89443 10.8304 6.56654C10.552 7.23865 10.0806 7.81311 9.47571 8.21728C8.87083 8.62144 8.15968 8.83717 7.4322 8.83717C6.45701 8.83606 5.52208 8.44818 4.83252 7.75862C4.14296 7.06906 3.75508 6.13413 3.75397 5.15894V5.15894ZM20.6511 13.1785C20.5793 13.2291 20.4982 13.265 20.4125 13.2842C20.3268 13.3035 20.2382 13.3056 20.1516 13.2906C20.0651 13.2756 19.9824 13.2437 19.9082 13.1967C19.834 13.1497 19.7698 13.0885 19.7192 13.0167C19.1012 12.1395 18.2817 11.4236 17.3294 10.929C16.3772 10.4344 15.3201 10.1758 14.2471 10.1747C14.0697 10.1747 13.8996 10.1042 13.7742 9.97883C13.6488 9.85341 13.5783 9.68331 13.5783 9.50594C13.5783 9.32857 13.6488 9.15847 13.7742 9.03305C13.8996 8.90763 14.0697 8.83717 14.2471 8.83717C14.7724 8.83658 15.2914 8.7235 15.7693 8.50555C16.2472 8.28759 16.6729 7.96981 17.0177 7.57359C17.3625 7.17736 17.6184 6.71188 17.7683 6.20847C17.9182 5.70505 17.9585 5.17538 17.8865 4.65508C17.8146 4.13478 17.632 3.63593 17.3512 3.19208C17.0703 2.74823 16.6976 2.36968 16.2582 2.08191C15.8188 1.79413 15.3229 1.6038 14.8038 1.52372C14.2847 1.44364 13.7544 1.47567 13.2487 1.61765C13.0782 1.66494 12.8959 1.64273 12.7418 1.55588C12.5876 1.46904 12.4741 1.32465 12.4262 1.15432C12.3783 0.98399 12.3998 0.801615 12.4861 0.647132C12.5724 0.492649 12.7164 0.378651 12.8865 0.330103C14.037 0.00551543 15.2655 0.10254 16.3507 0.60369C17.436 1.10484 18.3065 1.97715 18.8054 3.06341C19.3044 4.14966 19.3989 5.37841 19.072 6.52819C18.745 7.67798 18.0182 8.67317 17.0223 9.3344C18.5518 9.89858 19.8737 10.9142 20.8128 12.2466C20.9149 12.3917 20.9553 12.5713 20.9249 12.7461C20.8946 12.9208 20.7961 13.0764 20.6511 13.1785Z" fill="white"/>
</svg>
