<svg width="18" height="18" viewBox="0 0 18 18" fill="none" xmlns="http://www.w3.org/2000/svg">
<path d="M16.9271 9.24018C17.2736 8.78223 17.4655 8.22113 17.4655 7.63734C17.4655 6.71112 16.9477 5.83441 16.1143 5.34551C15.8998 5.21967 15.6555 5.15344 15.4067 5.15367H10.46L10.5838 2.61842C10.6127 2.00575 10.3961 1.42403 9.97524 0.980513C9.76872 0.761908 9.51957 0.587978 9.24317 0.469472C8.96677 0.350965 8.66901 0.2904 8.36828 0.291519C7.2956 0.291519 6.34668 1.01352 6.06201 2.04701L4.29002 8.46249H1.62274C1.25762 8.46249 0.962631 8.75747 0.962631 9.1226V16.6314C0.962631 16.9965 1.25762 17.2915 1.62274 17.2915H14.0267C14.2165 17.2915 14.4021 17.2544 14.5733 17.1801C15.5553 16.7614 16.1886 15.8021 16.1886 14.7377C16.1886 14.4778 16.1514 14.222 16.0772 13.9744C16.4237 13.5165 16.6156 12.9554 16.6156 12.3716C16.6156 12.1117 16.5784 11.8559 16.5042 11.6083C16.8507 11.1504 17.0426 10.5893 17.0426 10.0055C17.0385 9.74558 17.0013 9.48773 16.9271 9.24018V9.24018ZM2.44789 15.8062V9.94774H4.1188V15.8062H2.44789ZM15.5759 8.52437L15.1241 8.91631L15.4109 9.44028C15.5053 9.61288 15.5543 9.80668 15.5532 10.0034C15.5532 10.3438 15.4047 10.6677 15.1489 10.8905L14.6971 11.2824L14.9839 11.8064C15.0783 11.979 15.1273 12.1728 15.1262 12.3695C15.1262 12.7099 14.9777 13.0338 14.7219 13.2566L14.2701 13.6485L14.5568 14.1725C14.6513 14.3451 14.7003 14.5389 14.6992 14.7356C14.6992 15.1977 14.4269 15.6144 14.0061 15.8042H5.43903V9.88173L7.49157 2.44514C7.54449 2.25453 7.65811 2.08637 7.81519 1.96614C7.97228 1.8459 8.16428 1.78015 8.36209 1.77884C8.51887 1.77884 8.67358 1.82422 8.79735 1.91705C9.00158 2.0697 9.11091 2.30074 9.09853 2.54622L8.9005 6.63892H15.3861C15.7533 6.86377 15.9802 7.24334 15.9802 7.63734C15.9802 7.97772 15.8317 8.29952 15.5759 8.52437Z" fill="white"/>
</svg>
