<svg width="19" height="22" viewBox="0 0 19 22" fill="none" xmlns="http://www.w3.org/2000/svg">
<path d="M16.3861 12.6566V8.91134C16.3861 5.55151 14.2011 2.72119 11.2411 1.87001C10.9481 1.09924 10.2321 0.556152 9.38611 0.556152C8.54011 0.556152 7.82411 1.09924 7.53111 1.87001C4.57111 2.72223 2.38611 5.55151 2.38611 8.91134V12.6566L0.679109 14.4393C0.586067 14.5362 0.512279 14.6512 0.461994 14.778C0.411709 14.9047 0.385919 15.0406 0.386109 15.1777V17.2665C0.386109 17.5435 0.491466 17.8092 0.679003 18.005C0.866539 18.2009 1.12089 18.3109 1.38611 18.3109H17.3861C17.6513 18.3109 17.9057 18.2009 18.0932 18.005C18.2808 17.8092 18.3861 17.5435 18.3861 17.2665V15.1777C18.3863 15.0406 18.3605 14.9047 18.3102 14.778C18.2599 14.6512 18.1862 14.5362 18.0931 14.4393L16.3861 12.6566ZM16.3861 16.2221H2.38611V15.6101L4.09311 13.8273C4.18615 13.7305 4.25994 13.6154 4.31023 13.4887C4.36051 13.362 4.3863 13.2261 4.38611 13.0889V8.91134C4.38611 6.03193 6.62911 3.68935 9.38611 3.68935C12.1431 3.68935 14.3861 6.03193 14.3861 8.91134V13.0889C14.3861 13.3667 14.4911 13.632 14.6791 13.8273L16.3861 15.6101V16.2221ZM9.38611 21.4441C10.0054 21.4449 10.6096 21.2442 11.1146 20.8699C11.6196 20.4955 12.0004 19.9661 12.2041 19.3553H6.56811C6.77177 19.9661 7.15259 20.4955 7.65762 20.8699C8.16265 21.2442 8.76681 21.4449 9.38611 21.4441V21.4441Z" fill="black"/>
</svg>
