<svg width="16" height="18" viewBox="0 0 16 18" fill="none" xmlns="http://www.w3.org/2000/svg">
<path d="M3.8716 4.61897C4.04968 4.79557 4.29033 4.89466 4.54113 4.89466C4.79194 4.89466 5.03258 4.79557 5.21067 4.61897C5.29837 4.53205 5.36798 4.42862 5.41548 4.31465C5.46299 4.20068 5.48745 4.07843 5.48745 3.95496C5.48745 3.83148 5.46299 3.70923 5.41548 3.59526C5.36798 3.4813 5.29837 3.37787 5.21067 3.29095C5.03258 3.11435 4.79194 3.01526 4.54113 3.01526C4.29033 3.01526 4.04968 3.11435 3.8716 3.29095C3.50304 3.65827 3.50304 4.25287 3.8716 4.61897ZM14.7083 10.1473C14.9379 9.91974 15.1202 9.64897 15.2446 9.3506C15.369 9.05224 15.433 8.73218 15.433 8.40892C15.433 8.08566 15.369 7.76561 15.2446 7.46724C15.1202 7.16887 14.9379 6.89811 14.7083 6.67058L8.86058 0.859725C8.39809 0.400878 7.77372 0.142303 7.12223 0.139818L3.11238 0.122619C2.78631 0.120342 2.46304 0.182762 2.16126 0.306267C1.85948 0.429772 1.5852 0.611908 1.35429 0.842132C1.12338 1.07236 0.940435 1.3461 0.816033 1.6475C0.691631 1.94891 0.628248 2.272 0.629555 2.59807L0.65904 6.74183C0.664355 7.3883 0.924875 8.00648 1.38386 8.46175L7.14558 14.1866C7.61073 14.6474 8.239 14.9059 8.89375 14.9059C9.54849 14.9059 10.1768 14.6474 10.6419 14.1866L14.7083 10.1473V10.1473ZM13.8336 7.53914C13.9484 7.6529 14.0395 7.78828 14.1017 7.93747C14.1639 8.08665 14.1959 8.24668 14.1959 8.40831C14.1959 8.56994 14.1639 8.72996 14.1017 8.87915C14.0395 9.02833 13.9484 9.16371 13.8336 9.27748L9.76722 13.3193C9.28441 13.7984 8.50185 13.7984 8.01905 13.3193L2.25733 7.59319C2.02823 7.36539 1.89842 7.0563 1.89615 6.73323L1.86544 2.58947C1.86462 2.42631 1.89621 2.26461 1.95839 2.11376C2.02056 1.9629 2.11208 1.8259 2.22762 1.7107C2.34317 1.5955 2.48044 1.50439 2.63148 1.44266C2.78251 1.38094 2.9443 1.34983 3.10746 1.35113L7.11732 1.36833C7.44327 1.36941 7.75571 1.49871 7.98711 1.72828L13.8348 7.53914H13.8336ZM15.3692 10.8721C15.5343 11.3137 15.5687 11.7936 15.4685 12.2543C15.3683 12.715 15.1377 13.1372 14.8041 13.4704L12.3913 15.8832C11.935 16.3395 11.3933 16.7015 10.7971 16.9485C10.2008 17.1954 9.56182 17.3226 8.91647 17.3226C8.27113 17.3226 7.63211 17.1954 7.03589 16.9485C6.43968 16.7015 5.89795 16.3395 5.44163 15.8832L1.16396 11.6055C0.818275 11.2603 0.623843 10.7919 0.623413 10.3033V9.34505L5.44163 14.1633C5.5264 14.248 5.61362 14.3291 5.70208 14.4053L6.31019 15.0146C6.65243 15.3569 7.05875 15.6285 7.50594 15.8137C7.95313 15.999 8.43243 16.0943 8.91647 16.0943C9.40052 16.0943 9.87982 15.999 10.327 15.8137C10.7742 15.6285 11.1805 15.3569 11.5228 15.0146L12.1358 14.4016C12.2237 14.3251 12.3089 14.2457 12.3913 14.1633L14.8041 11.7505C15.0535 11.5017 15.2462 11.2021 15.3692 10.8721V10.8721Z" fill="white"/>
</svg>
